Coordinates
version=1
nRows=49
nColumns=12
inDegrees=yes

Units are S.I. units (second, meters, Newtons, ...)
Angles are in degrees

endheader
time	SC_y	SC_z	SC_x	AC_y	AC_z	AC_x	GH_y	GH_z	GH_yy	EL_x	PS_y
       0.0              -55.35          28.96          6.283           39.1         0.2901          14.95          12.86          52.25         -5.755          127.4          58.15
  0.002841              -55.35          28.96          6.289           39.1         0.2881          14.95          12.85          52.25         -5.749          127.4          58.16
  0.005682              -55.35          28.96          6.297           39.1         0.2859          14.94          12.85          52.26         -5.742          127.3          58.16
  0.008523              -55.35          28.96          6.304           39.1         0.2836          14.94          12.84          52.26         -5.736          127.3          58.17
   0.01136              -55.35          28.96          6.312           39.1         0.2812          14.93          12.84          52.26         -5.728          127.3          58.17
   0.01421              -55.34          28.96          6.321           39.1         0.2786          14.93          12.83          52.27         -5.721          127.3          58.18
   0.01705              -55.34          28.97           6.33           39.1         0.2758          14.92          12.83          52.27         -5.712          127.3          58.19
   0.01989              -55.34          28.97           6.34           39.1         0.2728          14.92          12.82          52.28         -5.704          127.3           58.2
   0.02273              -55.34          28.97          6.351           39.1         0.2696          14.91          12.82          52.28         -5.694          127.3           58.2
   0.02557              -55.33          28.97          6.362           39.1         0.2662           14.9          12.81          52.29         -5.684          127.3          58.21
   0.02841              -55.33          28.97          6.375           39.1         0.2625          14.89           12.8          52.29         -5.673          127.3          58.22
   0.03125              -55.33          28.98          6.388           39.1         0.2586          14.89          12.79           52.3         -5.662          127.3          58.23
   0.03409              -55.32          28.98          6.402           39.1         0.2543          14.88          12.79           52.3         -5.649          127.2          58.24
   0.03693              -55.32          28.98          6.417           39.1         0.2497          14.87          12.78          52.31         -5.635          127.2          58.25
   0.03978              -55.31          28.99          6.434           39.1         0.2447          14.86          12.77          52.32         -5.621          127.2          58.26
   0.04262              -55.31          28.99          6.452           39.1         0.2393          14.85          12.76          52.33         -5.605          127.2          58.28
   0.04546               -55.3           29.0          6.472           39.1         0.2334          14.84          12.74          52.34         -5.587          127.2          58.29
    0.0483               -55.3           29.0          6.493          39.11          0.227          14.82          12.73          52.35         -5.568          127.2          58.31
   0.05114              -55.29           29.0          6.516          39.11           0.22          14.81          12.72          52.36         -5.548          127.1          58.33
   0.05398              -55.29          29.01          6.542          39.11         0.2123           14.8           12.7          52.37         -5.525          127.1          58.34
   0.05682              -55.28          29.02           6.57          39.11         0.2039          14.78          12.69          52.38           -5.5          127.1          58.37
   0.05966              -55.27          29.02          6.601          39.11         0.1947          14.76          12.67           52.4         -5.473          127.1          58.39
    0.0625              -55.26          29.03          6.635          39.11         0.1844          14.74          12.65          52.41         -5.443          127.0          58.41
   0.06535              -55.25          29.04          6.672          39.11         0.1731          14.72          12.63          52.43         -5.409          127.0          58.44
   0.06819              -55.24          29.05          6.714          39.12         0.1605          14.69           12.6          52.45         -5.372          127.0          58.47
   0.07103              -55.23          29.06          6.761          39.12         0.1465          14.67          12.57          52.47          -5.33          126.9          58.51
   0.07387              -55.22          29.07          6.814          39.12         0.1307          14.64          12.54          52.49         -5.284          126.9          58.55
   0.07671               -55.2          29.08          6.873          39.12          0.113           14.6          12.51          52.52         -5.232          126.8          58.59
   0.07955              -55.19          29.09          6.939          39.13        0.09302          14.56          12.47          52.55         -5.173          126.7          58.64
   0.08239              -55.17          29.11          7.015          39.13        0.07031          14.52          12.42          52.59         -5.105          126.7           58.7
   0.08523              -55.14          29.13          7.101          39.13        0.04438          14.47          12.37          52.62         -5.029          126.6          58.76
   0.08808              -55.12          29.15            7.2          39.14        0.01462          14.41          12.31          52.67         -4.941          126.5          58.83
   0.09092              -55.09          29.17          7.315          39.14       -0.01973          14.34          12.25          52.72         -4.839          126.4          58.92
   0.09376              -55.06           29.2          7.448          39.15       -0.05965          14.26          12.17          52.78         -4.722          126.3          59.02
    0.0966              -55.02          29.24          7.604          39.16        -0.1064          14.17          12.08          52.85         -4.584          126.1          59.13
   0.09944              -54.97          29.27          7.787          39.17        -0.1614          14.06          11.97          52.94         -4.421          126.0          59.27
    0.1023              -54.91          29.32          8.005          39.18        -0.2268          13.93          11.84          53.04         -4.228          125.8          59.43
    0.1051              -54.85          29.38          8.266          39.19        -0.3053          13.78          11.69          53.16         -3.996          125.5          59.62
     0.108              -54.77          29.44          8.582           39.2        -0.4002          13.59           11.5           53.3         -3.716          125.2          59.86
    0.1108              -54.67          29.52          8.969          39.22        -0.5161          13.36          11.27          53.48         -3.373          124.9          60.15
    0.1136              -54.54          29.63          9.445          39.24        -0.6591          13.08          10.99           53.7         -2.951          124.4           60.5
    0.1165              -54.39          29.75          10.04          39.27        -0.8375          12.73          10.64          53.97         -2.424          123.8          60.94
    0.1193               -54.2          29.91          10.79          39.31         -1.062          12.29           10.2          54.31          -1.76          123.2           61.5
    0.1222              -53.96          30.11          11.74          39.35         -1.348          11.72          9.636          54.75         -0.916          122.3           62.2
     0.125              -53.65          30.37          12.96          39.41         -1.714           11.0          8.918          55.31         0.1641          121.1          63.11
    0.1279              -53.25           30.7          14.52          39.48         -2.183          10.08          7.995          56.02           1.55          119.7          64.27
    0.1307              -52.74          31.13          16.52          39.58         -2.782          8.898          6.817          56.94          3.321          117.8          65.75
    0.1335              -52.09          31.66          19.03          39.69         -3.536          7.414          5.336          58.09          5.547          115.4          67.62
    0.1364              -51.31          32.31          22.09          39.84         -4.454          5.605           3.53          59.49           8.26          112.6          69.89
